<?xml version="1.0" encoding="UTF-8"?>
<svg width="159px" height="89px" viewBox="0 0 159 89" version="1.1" xmlns="http://www.w3.org/2000/svg" xmlns:xlink="http://www.w3.org/1999/xlink">
    <!-- Generator: Sketch 48.2 (47327) - http://www.bohemiancoding.com/sketch -->
    <title>logo</title>
    <desc>Created with Sketch.</desc>
    <defs></defs>
    <g id="Artboard" stroke="none" stroke-width="1" fill="none" fill-rule="evenodd" transform="translate(-30.000000, -62.000000)">
        <g id="logo" transform="translate(30.000000, 62.000000)" fill="#D3D3D3" fill-rule="nonzero">
            <path d="M136.12374,58.9580126 C135.66422,59.4664005 134.994892,59.788539 134.242004,59.788539 C132.893319,59.788539 131.778378,58.6620367 131.778378,57.3014559 C131.778378,56.3398096 132.335351,55.4950981 133.138163,55.0824182 L133.127063,54.9899316 C136.763548,52.7975366 140.92751,51.7316438 145.61688,51.7316438 C154.354373,51.7316438 158.752079,56.116434 158.752079,64.9424439 L158.752079,84.7304293 L158.683438,84.7348733 C158.563144,86.4025594 157.203397,87.7525487 155.525164,87.7525487 C153.985248,87.7525487 152.71507,86.6159167 152.423357,85.1401644 L152.360305,85.1442465 L152.360305,84.3311958 C152.208462,83.961405 152.124492,83.5566689 152.124492,83.1315902 C152.124492,82.7343054 152.197565,82.3548526 152.330684,82.0050878 L152.242399,82.0050878 C149.720854,86.1516196 146.02645,88.2269755 141.101267,88.2269755 C137.582688,88.2269755 134.827399,87.3387316 132.715425,85.5016341 C130.663437,83.6645366 129.606416,81.1774535 129.606416,78.0968144 C129.606416,71.5802388 133.594552,67.7890046 141.628744,66.7231118 L152.360305,65.2413119 C152.360305,59.5544606 149.956667,56.7099899 145.029416,56.7099899 C141.922476,56.7099899 138.991361,57.4205851 136.234003,58.902385 C136.196674,58.9233139 136.159933,58.941796 136.12374,58.9580126 Z M89.4437327,39.70466 C89.4423575,39.6655361 89.4416641,39.6262243 89.4416641,39.5867364 C89.4416641,39.5459788 89.4423575,39.5054259 89.4437327,39.4650887 L89.4437327,39.2920484 L89.4538934,39.2920484 C89.5952855,37.5998563 90.9455691,36.3284486 92.6085918,36.3284486 C94.2716146,36.3284486 95.6737129,37.5998563 95.8207179,39.2920484 L95.893426,39.2920484 L95.893426,58.5449975 L96.0113325,58.5449975 C98.8245407,53.9825585 102.988502,51.7316438 108.44323,51.7316438 C113.016762,51.7316438 116.59326,53.2719633 119.29063,56.3526024 C121.928012,59.4332414 123.278766,63.6403828 123.278766,68.9719365 C123.278766,74.8364366 121.812174,79.5159148 118.761085,83.012461 C115.772051,86.5090072 111.783915,88.2269755 106.800813,88.2269755 C102.051456,88.2269755 98.4749582,86.3313584 96.0113325,82.4795146 L95.893426,82.4795146 L95.893426,84.2580925 L95.8284207,84.2580925 C95.7335949,85.9517235 94.3071983,87.278122 92.6085918,87.278122 C90.907987,87.278122 89.5375091,85.9517235 89.4464796,84.2580925 L89.4437327,84.2580925 L89.4437327,84.1962773 C89.4423575,84.1571534 89.4416641,84.1178416 89.4416641,84.0783537 C89.4416641,84.0389408 89.4423575,83.9996729 89.4437327,83.960563 L89.4437327,83.7796937 C89.3297581,83.4479744 89.2679072,83.0907312 89.2679072,82.717773 C89.2679072,82.3454878 89.329771,81.9861443 89.4437327,81.6506676 L89.4437327,39.70466 Z M74.5770987,81.4570651 C74.9518447,81.2409736 75.3830595,81.1168439 75.8389754,81.1168439 C77.247648,81.1168439 78.3605201,82.3018658 78.3605201,83.7230562 C78.3605201,84.663454 77.8723507,85.4748247 77.1345317,85.9161751 C77.0260176,86.0180685 76.8784288,86.1167617 76.6622525,86.2122292 C73.9069634,87.4557708 69.5671761,88.2269755 65.6390274,88.2269755 C60.3621936,88.2269755 56.3161384,86.6281364 53.3850238,83.4283682 C50.3939216,80.2285999 48.9293985,75.7852902 48.9293985,70.1569585 C48.9293985,64.8254047 50.5718156,60.382095 53.7966623,56.9461583 C57.021509,53.4517021 61.0075767,51.7316438 65.8169215,51.7316438 C70.5083597,51.7316438 74.2606829,53.2113537 76.8980655,56.116434 C79.5354482,59.0779438 80.8841332,63.168046 80.8841332,68.4389901 C80.8820647,68.4389901 80.9399837,69.6240121 79.9450182,70.5728656 C78.8900651,71.5802388 77.0139035,71.5802388 77.0139035,71.5802388 L55.5528488,71.5802388 C55.6707554,75.3129534 56.7257084,78.155334 58.7197765,80.1700803 C60.7138446,82.1848266 63.5270528,83.2507194 67.163538,83.2507194 C69.8988301,83.2507194 72.1374151,82.634264 74.5770987,81.4570651 Z M58.1902315,26.8503631 C58.1902315,26.8503631 60.3022061,26.8503631 60.9455206,28.4492022 C61.5909036,29.9289121 59.9484865,31.0554145 59.9484865,31.0554145 L35.2046662,51.553995 C35.2046662,51.553995 33.7959936,52.7975366 33.2685171,54.2187269 C32.7410406,55.5813976 32.623134,58.3067391 32.623134,58.3067391 L33.2105981,77.3820393 C33.2105981,77.3820393 33.0368411,79.6914736 33.8559811,80.9371051 C34.6172022,82.1221271 35.5563172,82.8327222 35.5563172,82.8327222 L40.9510575,86.2101392 C40.9510575,86.2101392 42.2418236,86.8036952 42.1239171,87.6334196 C42.0060106,89.0546099 40.833151,88.8769611 40.833151,88.8769611 L21.0145134,88.8184415 C21.0145134,88.8184415 19.8416539,88.9960903 19.5479218,88.1663659 C19.1962708,87.2175124 20.6028749,86.3292684 20.6028749,86.3292684 L25.6459642,83.1315902 C25.6459642,83.1315902 27.2283937,82.3018658 27.6979513,81.1168439 C28.1675088,79.9339119 28.1675088,77.9776852 28.1675088,77.9776852 L28.1675088,58.6035171 C28.1675088,58.6035171 28.0496023,55.9387852 27.6400323,54.7537632 C27.1704748,53.5687413 25.9396962,51.6731242 25.9396962,51.6731242 L1.13795687,30.8777657 C1.13795687,30.8777657 -0.62236675,29.8097829 0.316748317,27.9747754 C0.960062824,26.6121047 2.72038644,26.9088827 2.72038644,26.9088827 L58.1902315,26.8503631 Z M74.4902903,66.6039826 C74.4323714,63.464824 73.6711503,61.0341705 72.1445712,59.3162022 C70.6200606,57.5982339 68.450167,56.7099899 65.6948779,56.7099899 C63.1154142,56.7099899 60.9455206,57.5982339 59.069359,59.4353314 C57.1931974,61.2724289 56.0203378,63.7009924 55.5507803,66.6039826 L74.4902903,66.6039826 Z M95.8334385,73.0599487 C95.8334385,75.9044194 96.770485,78.2744632 98.7066342,80.2285999 C100.582796,82.1848266 102.986434,83.1315902 105.803779,83.1315902 C109.26237,83.1315902 111.899753,81.8859587 113.835902,79.340356 C115.772051,76.8532729 116.711166,73.3567267 116.711166,68.8548973 C116.711166,65.1807023 115.82997,62.279802 114.011728,60.087407 C112.253472,57.8950119 109.789847,56.8291191 106.682907,56.8291191 C103.515979,56.8291191 100.936515,57.8950119 98.8824597,60.087407 C96.828404,62.279802 95.8334385,65.0051435 95.8334385,68.3219509 L95.8334385,73.0599487 Z M143.916544,71.0472924 C140.92751,71.40259 138.873454,72.1131851 137.758514,73.1790779 C136.645642,74.2470606 136.058178,75.668251 136.058178,77.5638681 C136.058178,79.2233168 136.705629,80.5859875 137.87642,81.6518803 C139.109267,82.717773 140.749616,83.2528094 142.743684,83.2528094 C145.558961,83.2528094 147.846761,82.3039558 149.665003,80.4083387 C151.481178,78.5127216 152.362374,76.1426777 152.362374,73.2396875 L152.362374,69.92288 L143.916544,71.0472924 Z M95.132205,27.0280119 C91.4957198,27.4418291 90.5586733,21.7549777 94.1930899,21.3411606 C102.225213,20.392307 110.317323,24.1250216 113.717995,31.70749 C115.244575,35.0849071 110.023591,37.4549509 108.501149,34.0775339 C106.15543,28.8044998 100.291132,26.4344559 95.132205,27.0280119 Z M94.4847534,16.423424 C90.8503367,16.8393312 89.9112217,11.0918703 93.5456384,10.7365727 C106.387106,9.31538238 119.522306,15.2969217 123.744187,28.2130338 C124.917046,31.70958 119.698131,34.1381435 118.525272,30.5830777 C115.126668,20.2146582 104.922583,15.2969217 94.4847534,16.423424 Z M93.4298004,6.29326294 C89.7953837,6.70708012 88.8562686,1.02022881 92.4906853,0.547892025 C110.962706,-1.58598346 128.669369,7.53680448 133.770378,26.2588971 C134.767412,29.8118729 129.136858,30.7022069 128.141893,27.1471411 C123.862093,11.6854263 108.499081,4.51468504 93.4298004,6.29326294 Z" id="Combined-Shape"></path>
        </g>
    </g>
</svg>